<?xml version="1.0" encoding="UTF-8" standalone="no"?>
<!-- Created with Inkscape (http://www.inkscape.org/) -->

<svg
   width="8in"
   height="8in"
   viewBox="0 0 203.2 203.20001"
   version="1.1"
   id="svg5"
   inkscape:version="1.1.1 (3bf5ae0d25, 2021-09-20)"
   sodipodi:docname="Northhead.svg"
   inkscape:export-filename="/home/oyy1/Documents/Northhead.png"
   inkscape:export-xdpi="96"
   inkscape:export-ydpi="96"
   xmlns:inkscape="http://www.inkscape.org/namespaces/inkscape"
   xmlns:sodipodi="http://sodipodi.sourceforge.net/DTD/sodipodi-0.dtd"
   xmlns="http://www.w3.org/2000/svg"
   xmlns:svg="http://www.w3.org/2000/svg">
  <sodipodi:namedview
     id="namedview7"
     pagecolor="#ffffff"
     bordercolor="#666666"
     borderopacity="1.0"
     inkscape:pageshadow="2"
     inkscape:pageopacity="0.0"
     inkscape:pagecheckerboard="0"
     inkscape:document-units="mm"
     showgrid="false"
     units="in"
     width="1in"
     inkscape:zoom="0.69130191"
     inkscape:cx="233.61718"
     inkscape:cy="345.72449"
     inkscape:window-width="1920"
     inkscape:window-height="1043"
     inkscape:window-x="0"
     inkscape:window-y="0"
     inkscape:window-maximized="1"
     inkscape:current-layer="layer1" />
  <defs
     id="defs2" />
  <g
     inkscape:label="Layer 1"
     inkscape:groupmode="layer"
     id="layer1">
    <path
       style="fill:#fdf6e3;stroke:none;stroke-width:0.264582px;stroke-linecap:butt;stroke-linejoin:miter;stroke-opacity:1;fill-opacity:1"
       d="m 31.092036,29.883083 c 0.298185,-0.144764 9.287699,0.187444 9.773681,-0.01336 0.485981,-0.200802 4.320757,-0.177908 6.892598,-1.097269 2.571843,-0.919361 4.146493,0.06064 5.675171,-0.20669 1.528679,-0.267335 10.21112,-1.753878 12.154297,-2.711082 1.943178,-0.957202 1.108946,-0.80097 3.759558,-1.422254 2.650617,-0.621287 5.764871,0.196503 8.276629,0.256585 2.511758,0.06008 12.782768,3.316107 13.072157,3.671649 0.289379,0.355542 4.17808,1.719583 4.906437,1.811996 0.728366,0.09241 0.865255,0.188656 1.600722,0.616426 0.735466,0.427771 6.282534,1.618295 7.110214,2.074283 0.8277,0.455991 6.90167,3.214071 7.51688,3.364043 0.6152,0.149973 8.83643,3.467481 10.05853,3.718462 1.2221,0.250981 15.59756,6.214255 16.20249,6.417955 0.60494,0.2037 7.44174,3.859276 9.84932,5.432253 2.40758,1.572974 10.04798,6.657353 13.04656,10.062693 2.99858,3.40534 7.44754,7.79293 9.09788,11.17118 1.65033,3.378237 2.81319,6.306657 3.96737,9.770867 1.15416,3.46421 0.2806,7.98486 0.0446,8.83423 -0.23603,0.84938 -1.19081,2.22772 -1.51139,2.37928 -0.3206,0.15156 -0.64411,-0.0973 -0.70345,-0.3339 -0.0593,-0.2366 0.54147,-1.28529 0.47312,-2.33588 -0.0683,-1.0506 -2.84487,-6.46502 -3.15541,-7.34207 -0.31054,-0.87704 0.90545,-3.18376 0.26072,-4.47204 -0.64474,-1.28827 -6.97219,-14.522567 -9.18798,-15.514967 -2.2158,-0.99241 -4.12197,-1.43787 -4.93412,-1.33903 -0.81217,0.0988 -0.24989,-1.4668 -1.1905,-2.18131 -0.94059,-0.71451 -3.80588,-3.39308 -4.35018,-3.26358 -0.5443,0.1295 -2.70829,1.17279 -3.45266,1.1079 -0.74437,-0.0649 -2.69865,0.19716 -3.31496,-0.25279 -0.61632,-0.44995 -0.57482,-1.81156 -1.01478,-1.91776 -0.43997,-0.106192 -0.7165,-0.284572 -0.93444,0.34237 -0.21795,0.62694 -0.62498,-0.003 -0.8369,0.23299 -0.21193,0.2357 -0.44824,1.14329 0.71444,1.46832 1.16267,0.32504 1.6338,1.52883 2.17636,1.61311 0.54255,0.0843 1.22126,-0.14128 1.63422,0.0932 0.41296,0.23449 1.33506,1.46281 1.27662,1.76383 -0.0584,0.30102 0.0567,2.06676 0.0513,2.57634 -0.005,0.50958 0.25963,2.14175 0.94067,3.21888 0.68103,1.07714 0.70121,5.31658 0.70121,5.707156 0,0.39058 -0.0186,2.368341 -0.0642,4.033221 -0.0456,1.66487 -0.88506,5.19627 -0.87786,6.14786 0.007,0.9516 0.99242,2.28084 1.53713,2.32391 0.54471,0.0431 4.07291,0.20824 4.07291,0.20824 0,0 3.08614,0.16833 6.09742,0.77298 3.0113,0.60465 4.31497,0.73855 4.67079,0.151 0.35582,-0.58755 0.41674,-0.8546 0.6552,-0.83068 0.23846,0.0239 0.47131,0.06 0.38983,0.43487 -0.0815,0.37488 -0.0887,0.88862 -0.22332,1.05485 -0.13465,0.16623 -0.46393,-0.0386 -0.52831,0.2094 -0.0644,0.24799 0.14259,0.92702 -0.0835,1.05765 -0.22612,0.13063 -0.5979,0.30962 -0.85944,0.29803 -0.26154,-0.0116 -0.30938,-0.28355 -0.55531,-0.3252 -0.24593,-0.0417 -0.68017,0.20223 -0.63861,0.76407 0.0416,0.56185 -0.51949,0.49759 -0.49878,0.78719 0.0207,0.28959 -0.27734,2.17705 0.0242,2.46443 0.30153,0.28738 0.11636,0.81262 1.22816,0.0819 1.11179,-0.73069 5.32682,-1.52726 6.27998,-1.36988 0.95315,0.15738 1.07631,1.49945 2.07743,2.10678 1.00112,0.60734 1.32726,1.09284 1.93301,1.25961 0.60574,0.16676 1.9339,-0.30447 2.3259,-0.14513 0.392,0.15934 3.7962,7.35732 9.83836,15.22945 6.04215,7.87212 -5.98209,13.17013 -10.58177,16.11527 -4.59968,2.94516 -4.63733,4.5329 -7.57649,6.31854 -2.93915,1.78565 -8.14946,0.56111 -11.21298,1.8745 -3.06353,1.3134 -5.93315,1.66137 -8.53107,4.15913 -2.59791,2.49776 -4.60332,-0.45917 -4.54679,-0.98757 0.0565,-0.52841 1.80965,-2.70613 1.18118,-3.23659 -0.62848,-0.53046 -1.64455,-1.14736 -2.89094,-1.05177 -1.2464,0.0956 -1.86637,0.59868 -1.98859,0.85835 -0.12222,0.25967 -0.16847,1.19809 0.37096,1.27733 0.53942,0.0792 1.79423,0.12268 1.97046,0.64315 0.17623,0.52046 -0.26023,2.53251 0.0768,2.9558 0.33705,0.42328 2.41188,2.95122 3.07857,3.41207 0.6667,0.46085 1.49355,1.59222 1.48785,3.10382 -0.006,1.51159 1.59847,4.35937 2.24956,4.77966 0.65109,0.4203 1.29396,3.25313 2.32656,1.33797 1.03261,-1.91515 2.91888,-3.60633 2.55344,-5.46897 -0.36545,-1.86264 -0.40273,-2.03103 0.26219,-3.12072 0.66492,-1.0897 2.33955,0.19229 1.25845,3.58456 -1.0811,3.39226 -2.73797,5.819 -2.94831,6.83928 -0.21033,1.02028 -1.51008,3.49906 -0.66987,4.82349 0.84021,1.32442 2.16855,2.59465 2.3872,2.65799 0.21865,0.0633 0.85321,-0.0583 0.76939,-0.52054 -0.0838,-0.46226 -0.27743,-1.15737 0.21407,-1.68755 0.49149,-0.53018 1.31788,-2.12539 2.58296,-2.73751 1.26509,-0.61214 2.19649,0.81255 1.55083,2.09549 -0.64568,1.28294 -2.95738,6.39852 -4.2632,7.70034 -1.30583,1.30181 -8.49631,4.47589 -10.4507,6.62399 -1.95439,2.1481 -2.72789,2.10885 -2.69566,3.57596 0.0322,1.46711 0.17801,2.27154 -0.4387,2.82947 -0.61671,0.55793 -1.89935,0.65222 -4.16789,-1.41086 -2.26853,-2.06308 -0.80854,-3.57297 -0.63941,-4.75985 0.16913,-1.18688 0.48514,-7.56943 0.17025,-8.82152 -0.3149,-1.25211 -1.67556,-7.30639 -1.35488,-9.46393 0.32069,-2.15755 1.91403,-5.39217 1.59091,-7.06447 -0.32312,-1.67231 -1.65921,-5.06587 -2.97204,-6.8361 -1.31284,-1.77023 -4.17901,-6.97094 -7.83542,-9.45131 -3.65639,-2.48038 -4.50464,-4.81966 -6.03996,-6.00972 -1.53531,-1.19005 -5.82224,-6.59007 -9.06619,-8.58595 -3.24396,-1.99589 -6.70161,-4.55326 -10.449114,-5.77481 -3.747502,-1.22155 -8.786538,-2.48206 -13.223627,-5.94533 C 81.64095,101.06746 78.106937,94.57297 73.65871,90.16146 69.210473,85.74994 62.659034,79.74158 58.615427,77.68858 54.571817,75.63558 51.838813,73.402859 46.215818,67.898503 40.592734,62.394173 33.988173,54.242694 30.470234,50.570129 26.952293,46.897562 21.681861,42.228097 18.627481,38.296 c -3.054378,-3.932097 -1.123752,-8.682702 0.214602,-9.773952 1.338357,-1.09125 1.943049,-1.314312 3.400597,-1.007999 1.457548,0.306311 2.203576,1.98578 1.927228,2.371688 -0.276347,0.385908 -1.219345,-0.364278 -1.745085,-0.185854 -0.525738,0.178425 -0.280319,0.457719 -0.67515,0.48921 -0.39483,0.03149 -1.073438,-0.201039 -1.185658,-0.0172 -0.112223,0.183843 -0.209213,0.736401 0.07429,1.350774 0.283497,0.614371 0.05896,3.212902 -0.0045,3.834281 -0.06345,0.621377 1.796475,3.841287 2.028628,4.091755 0.232152,0.250468 2.3488,2.229067 6.265382,2.916274 3.916585,0.687208 7.705715,4.525696 8.131568,5.148662 0.425852,0.622967 3.024466,2.337179 4.010349,3.234066 0.985886,0.896887 1.584931,2.468838 2.801331,2.680338 1.216403,0.211502 4.092064,-0.68716 4.803797,-0.21594 0.711732,0.47122 3.215035,3.22 5.239694,3.24514 2.024655,0.0251 2.759374,-0.529152 3.772262,-0.409502 1.012892,0.119652 11.416785,1.152152 13.00159,-0.0116 1.584801,-1.1638 2.492697,-2.962422 2.875325,-4.891404 0.382618,-1.928981 0.844336,-4.316439 0.252259,-4.821761 -0.592067,-0.505322 -1.340734,-1.446985 -3.032044,-1.264626 -1.691312,0.182361 -4.1669,-4.591828 -3.898844,-4.8768 0.268054,-0.28497 1.501686,0.256955 1.706771,-0.314899 0.205088,-0.571858 0.529833,-4.630947 -0.86105,-4.881954 -1.390881,-0.251011 -2.202247,0.221736 -3.672349,-0.467728 -1.470102,-0.689465 -0.627419,-2.402258 -1.7112,-3.000412 -1.083779,-0.598152 -1.926528,-2.31121 -4.675457,0.286623 -2.748926,2.597833 -7.333532,4.019907 -8.111133,4.792295 -0.777604,0.772385 -3.842618,2.953432 -5.206081,5.135869 -1.363463,2.182437 -1.521342,1.969153 -1.684938,1.187717 -0.163593,-0.781439 -2.328542,0.981207 -2.246084,1.204333 0.08246,0.223126 1.565015,0.546981 1.360853,1.256631 -0.204165,0.709649 -1.54014,2.260433 -1.802412,2.341239 -0.262275,0.08081 -1.142881,-2.206519 -2.829833,-3.135891 -1.686951,-0.929376 -2.39706,-1.673911 -1.158805,-2.37626 1.238257,-0.70235 6.457551,-3.443494 6.63403,-4.556086 0.176479,-1.112591 0.660058,-3.550597 -0.185729,-4.623546 -0.845789,-1.072949 -0.669046,-2.008005 -5.283714,-1.044207 -4.614671,0.963798 -4.580908,0.572254 -5.865679,0.654645 -1.284771,0.08239 -6.047309,1.869189 -7.031186,2.516828 -0.98388,0.647642 -1.134261,0.882595 -1.31946,0.297061 -0.1852,-0.585531 -0.122234,-0.940406 0.450017,-1.542854 0.572248,-0.602448 0.726265,-0.697196 0.64354,-0.852466 -0.08272,-0.155268 -0.194449,-0.555602 -0.507432,-0.298514 -0.312984,0.257088 -0.39782,0.544767 -0.561215,0.627555 -0.163398,0.08279 -0.806607,-0.139875 -0.704989,-0.416653 0.03132,-1.235187 2.219183,-0.610704 4.230196,-1.161753 1.765792,-0.483854 3.491546,-1.387539 4.600274,-1.92601 z"
       id="path1399"
       sodipodi:nodetypes="csssssssssssssssssssscssssssssssssssccssscscsssssssscssssssssssssssssssssscssssssssssssssssssssssssssssscsssssssssssssssssssssssssssssssssssssssssssssscsc" />
  </g>
</svg>
